# xmcd
#
# Track frame offsets: 
#        150
#        16862
#        32930
#        48800
#        67285
#        84772
#        100375
#        117645
#        136602
#        159072
#        181950
#        200695
#        220212
#        236110
#        253940
#        276930
#        292107
#        308297
#        325480
#
# Disc length: 4568 seconds
#
# Revision: 4
# Processed by: cddbd v1.5.2PL0 Copyright (c) Steve Scherf et al.
# Submitted via: ExactAudioCopy v1.3
#
DISCID=1511d613
DTITLE=Various Artist - No Sweat - The Coolest R&B - Vol. 04
DYEAR=1995
DGENRE=R&B
TTITLE0=K-Ci and JoJo - All My Life
TTITLE1=Romeo - Coming Home
TTITLE2=Destiny's Child feat. Wyclef Jean - No No No
TTITLE3=LL Cool J - Phenomenon
TTITLE4=Cleopatra - Cleopatra's Theme
TTITLE5=Queen Pen feat. Eric Williams - All My Love
TTITLE6=Jonestown - Sweet Thang
TTITLE7=Uncle Sam - I Don't Ever Want To See You Again
TTITLE8=Missy Elliot - Beep Me 911
TTITLE9=Somethin' For The People - All I Do
TTITLE10=Keith Sweat - I Want Her
TTITLE11=Allure - Last Chance
TTITLE12=Blackstreet - Money
TTITLE13=Mary J. Blige feat. George Benson - Seven Days
TTITLE14=Ginuwine - Holler
TTITLE15=Joe - All The Things
TTITLE16=Wyclef Jean - Gone Till November
TTITLE17=Erykah Badu - Tyrone
TTITLE18=Prince Igor feat. Warren G and Sissel - The Rapsody
EXTD=Properly ID-Tagged (use Urban As Gerne if  The Disc contains R&B 
EXTD=And Hiphop)
EXTT0=
EXTT1=
EXTT2=
EXTT3=
EXTT4=
EXTT5=
EXTT6=
EXTT7=
EXTT8=
EXTT9=
EXTT10=
EXTT11=
EXTT12=
EXTT13=
EXTT14=
EXTT15=
EXTT16=
EXTT17=
EXTT18=
PLAYORDER=
